{"asset":{"generator":"Modov11.2","version":"2.0"},"scene":0,"scenes":[{"nodes":[0]}],"nodes":[{"name":"Mesh","mesh":0}],"meshes":[{"primitives":[{"indices":1,"mode":4,"material":1,"attributes":{"POSITION":0,"NORMAL":2,"TEXCOORD_0":3}}]}],"buffers":[{"byteLength":17312,"uri":"Torus.bin"}],"bufferViews":[{"buffer":0,"byteLength":3900},{"buffer":0,"byteLength":6912,"byteOffset":3900},{"buffer":0,"byteLength":3900,"byteOffset":10812},{"buffer":0,"byteLength":2600,"byteOffset":14712}],"accessors":[{"bufferView":0,"type":"VEC3","componentType":5126,"count":325,"min":[-0.75,-0.25,-0.75],"max":[0.75,0.25,0.75]},{"bufferView":1,"type":"SCALAR","componentType":5125,"count":1728},{"bufferView":2,"type":"VEC3","componentType":5126,"count":325},{"bufferView":3,"type":"VEC2","componentType":5126,"count":325}],"materials":[{"pbrMetallicRoughness":{"metallicFactor":0.5,"roughnessFactor":0.5}},{"name":"Default","emissiveFactor":[0.0,0.0,0.0],"alphaMode":"OPAQUE","doubleSided":false,"pbrMetallicRoughness":{"baseColorFactor":[1.0,1.0,1.0,1.0],"metallicFactor":1.0,"roughnessFactor":1.0}}]}